<?xml version="1.0" standalone="no"?>
<!DOCTYPE svg PUBLIC "-//W3C//DTD SVG 20010904//EN"
 "http://www.w3.org/TR/2001/REC-SVG-20010904/DTD/svg10.dtd">
<svg version="1.0" xmlns="http://www.w3.org/2000/svg"
 width="1000.000000pt" height="1000.000000pt" viewBox="0 0 1000.000000 1000.000000"
 preserveAspectRatio="xMidYMid meet">
<metadata>
Created by potrace 1.11, written by Peter Selinger 2001-2013
</metadata>
<g transform="translate(0.000000,1000.000000) scale(0.100000,-0.100000)"
fill="#000000" stroke="none">
<path d="M4682 9990 c-1083 -76 -2056 -466 -2897 -1161 -232 -192 -594 -575
-791 -839 -808 -1078 -1143 -2449 -928 -3790 183 -1143 765 -2193 1640 -2959
755 -661 1670 -1073 2669 -1201 1340 -171 2699 214 3756 1064 1713 1378 2323
3693 1515 5746 -123 312 -346 727 -538 999 -410 584 -937 1078 -1524 1431
-644 387 -1340 618 -2094 695 -183 19 -634 27 -808 15z m-1547 -2721 c517 -39
941 -217 1251 -524 119 -119 209 -249 255 -373 29 -78 33 -98 33 -197 1 -81
-4 -123 -17 -161 -57 -163 -190 -259 -374 -271 -157 -11 -225 21 -397 186
-232 220 -320 289 -465 361 -115 58 -206 80 -352 87 -392 18 -675 -131 -829
-437 -79 -158 -115 -317 -131 -585 -15 -240 -5 -784 16 -923 56 -363 214 -617
460 -738 149 -73 219 -88 430 -88 168 0 186 2 270 28 139 42 218 89 311 181
137 136 184 262 184 502 l0 131 -257 4 c-225 4 -266 7 -319 25 -116 38 -199
118 -230 221 -8 25 -14 85 -14 133 0 146 43 235 143 300 105 68 131 71 728 67
460 -4 531 -6 584 -21 184 -53 289 -157 342 -338 21 -72 30 -535 13 -682 -63
-558 -371 -993 -873 -1232 -127 -60 -220 -93 -363 -129 -190 -48 -310 -60
-569 -60 -259 0 -375 12 -575 61 -769 187 -1244 773 -1329 1637 -17 174 -14
1034 4 1190 115 983 753 1588 1740 1649 114 7 197 6 330 -4z m4407 -79 c670
-48 1095 -370 1178 -892 19 -114 8 -352 -20 -453 -92 -338 -336 -573 -683
-661 -58 -14 -67 -19 -67 -39 0 -21 6 -23 68 -30 112 -12 251 -52 357 -104
278 -136 458 -363 537 -678 20 -76 23 -113 22 -278 0 -172 -3 -199 -26 -287
-138 -513 -559 -837 -1198 -923 -83 -12 -275 -15 -933 -15 -920 0 -904 -1
-1044 67 -124 60 -218 181 -260 335 -16 58 -18 195 -21 1723 -2 1176 0 1685 8
1745 38 292 205 455 498 490 99 11 1425 11 1584 0z"/>
<path d="M6500 5935 l0 -517 353 5 c318 4 360 6 434 25 222 58 354 179 398
363 55 236 -43 468 -239 564 -134 66 -151 68 -568 73 l-378 4 0 -517z"/>
<path d="M6500 4157 l0 -585 363 4 c459 5 553 17 715 95 192 92 285 248 285
479 1 242 -100 416 -295 509 -150 71 -171 74 -645 78 l-423 4 0 -584z"/>
</g>
</svg>
